<svg viewBox="-768 -371 1536 742" width="1536" height="742" style="background-color: rgb(255, 255, 255);" xmlns="http://www.w3.org/2000/svg"><path d="M419.2656056664864,-135.28587363038196L419.2656056664864,-50.62590615301731M419.2656056664864,-50.62590615301731L397.32537989788614,-47.61970308843614M419.2656056664864,-50.62590615301731L433.372963255826,-45.95056043178813" style="fill:none;stroke:rgb(0,0,0);stroke-width:1;stroke-linecap:round"></path><path d="M433.372963255826,-45.95056043178813L419.2656056664864,-50.62590615301731L419.2656056664864,-135.28587363038196z" style="fill:rgb(238,238,238); fill-opacity: 0.4"></path><path d="M397.32537989788614,-132.27967056580079L397.32537989788614,-47.61970308843614M397.32537989788614,-47.61970308843614L411.4327374872257,-42.94435736720696" style="fill:none;stroke:rgb(0,0,0);stroke-width:1;stroke-linecap:round"></path><path d="M419.2656056664864,-50.62590615301731L397.32537989788614,-47.61970308843614L397.32537989788614,-132.27967056580079zM411.4327374872257,-42.94435736720696L397.32537989788614,-47.61970308843614L419.2656056664864,-50.62590615301731zM419.2656056664864,-135.28587363038196L419.2656056664864,-50.62590615301731L397.32537989788614,-132.27967056580079z" style="fill:rgb(238,238,238); fill-opacity: 0.4"></path><path d="M419.2656056664864,-135.28587363038196L397.32537989788614,-132.27967056580079M419.2656056664864,-135.28587363038196L433.372963255826,-130.61052790915278" style="fill:none;stroke:rgb(0,0,0);stroke-width:1;stroke-linecap:round"></path><path d="M433.372963255826,-45.95056043178813L411.4327374872257,-42.94435736720696L419.2656056664864,-50.62590615301731z" style="fill:rgb(238,238,238); fill-opacity: 0.4"></path><path d="M411.4327374872257,-42.94435736720696L433.372963255826,-45.95056043178813M433.372963255826,-130.61052790915278L433.372963255826,-45.95056043178813" style="fill:none;stroke:rgb(0,0,0);stroke-width:1;stroke-linecap:round"></path><path d="M433.372963255826,-130.61052790915278L433.372963255826,-45.95056043178813L419.2656056664864,-135.28587363038196zM433.372963255826,-130.61052790915278L419.2656056664864,-135.28587363038196L397.32537989788614,-132.27967056580079zM411.4327374872257,-42.94435736720696L433.372963255826,-45.95056043178813L433.372963255826,-130.61052790915278z" style="fill:rgb(238,238,238); fill-opacity: 0.4"></path><path d="M397.32537989788614,-132.27967056580079L411.4327374872257,-127.60432484457161" style="fill:none;stroke:rgb(0,0,0);stroke-width:1;stroke-linecap:round"></path><path d="M397.32537989788614,-132.27967056580079L397.32537989788614,-47.61970308843614L411.4327374872257,-127.60432484457161zM397.32537989788614,-47.61970308843614L411.4327374872257,-42.94435736720696L411.4327374872257,-127.60432484457161z" style="fill:rgb(238,238,238); fill-opacity: 0.4"></path><path d="M411.4327374872257,-127.60432484457161L411.4327374872257,-42.94435736720696M411.4327374872257,-127.60432484457161L433.372963255826,-130.61052790915278" style="fill:none;stroke:rgb(0,0,0);stroke-width:1;stroke-linecap:round"></path><path d="M411.4327374872257,-127.60432484457161L433.372963255826,-130.61052790915278L397.32537989788614,-132.27967056580079zM411.4327374872257,-127.60432484457161L411.4327374872257,-42.94435736720696L433.372963255826,-130.61052790915278z" style="fill:rgb(238,238,238); fill-opacity: 0.4"></path><path d="M334.0192703074414,-170.47378304963848L334.0192703074414,7.922546343916473M334.0192703074414,7.922546343916473L312.0790445388411,10.928749408497643M334.0192703074414,7.922546343916473L348.126627896781,12.597892065145656" style="fill:none;stroke:rgb(0,0,0);stroke-width:1;stroke-linecap:round"></path><path d="M377.12097502911024,-92.7144760491077L375.2725948421145,-83.05026212397607L380.11171668991904,-84.28695438566892zM377.12097502911024,-92.7144760491077L383.1024583507278,-90.73214149231862L401.2137532401632,-87.17831054650826zM375.2725948421145,-83.05026212397607L380.11171668991904,-75.09511495422824L380.11171668991904,-84.28695438566892zM384.9508385377235,-79.84277730871398L380.11171668991904,-75.09511495422824L401.2137532401632,-87.17831054650826zM383.1024583507278,-90.73214149231862L384.9508385377235,-79.84277730871398L401.2137532401632,-87.17831054650826z" style="fill:rgb(0,0,0)"></path><path d="M344.23825455450367,-79.37164891224204L380.111716689919,-84.28695438566892" style="fill:none;stroke:rgb(0,0,0);stroke-width:1;stroke-linecap:round"></path><path d="M383.1024583507278,-90.73214149231862L377.12097502911024,-92.7144760491077L380.11171668991904,-84.28695438566892zM380.11171668991904,-75.09511495422824L384.9508385377235,-79.84277730871398L380.11171668991904,-84.28695438566892zM384.9508385377235,-79.84277730871398L383.1024583507278,-90.73214149231862L380.11171668991904,-84.28695438566892z" style="fill:rgb(0,0,0)"></path><path d="M312.0790445388411,-167.4675799850573L312.0790445388411,10.928749408497643M312.0790445388411,10.928749408497643L326.1864021281807,15.604095129726826" style="fill:none;stroke:rgb(0,0,0);stroke-width:1;stroke-linecap:round"></path><path d="M326.1864021281807,15.604095129726826L312.0790445388411,10.928749408497643L334.0192703074414,7.922546343916462zM348.126627896781,12.597892065145645L326.1864021281807,15.604095129726826L334.0192703074414,7.922546343916462zM348.126627896781,12.597892065145645L334.0192703074414,7.922546343916462L334.0192703074414,-170.47378304963848z" style="fill:rgb(238,238,238); fill-opacity: 0.4"></path><path d="M326.1864021281807,15.604095129726826L348.126627896781,12.597892065145656M348.126627896781,-165.7984373284093L348.126627896781,12.597892065145656" style="fill:none;stroke:rgb(0,0,0);stroke-width:1;stroke-linecap:round"></path><path d="M334.0192703074414,7.922546343916462L312.0790445388411,10.928749408497643L312.0790445388411,-167.4675799850573zM334.0192703074414,-170.47378304963848L334.0192703074414,7.922546343916462L312.0790445388411,-167.4675799850573z" style="fill:rgb(238,238,238); fill-opacity: 0.4"></path><path d="M326.1864021281807,-162.7922342638281L326.1864021281807,15.604095129726826M334.0192703074414,-170.47378304963848L312.0790445388411,-167.4675799850573M334.0192703074414,-170.47378304963848L348.126627896781,-165.7984373284093" style="fill:none;stroke:rgb(0,0,0);stroke-width:1;stroke-linecap:round"></path><path d="M326.1864021281807,15.604095129726826L348.126627896781,12.597892065145645L348.126627896781,-165.7984373284093zM348.126627896781,-165.7984373284093L348.126627896781,12.597892065145645L334.0192703074414,-170.47378304963848zM312.0790445388411,10.928749408497643L326.1864021281807,15.604095129726826L326.1864021281807,-162.79223426382813z" style="fill:rgb(238,238,238); fill-opacity: 0.4"></path><path d="M248.77293494839637,-199.1865797530177L248.77293494839637,59.995886124972934M248.77293494839637,59.995886124972934L226.8327091797961,63.00208918955413M248.77293494839637,59.995886124972934L262.8802925377359,64.67123184620215" style="fill:none;stroke:rgb(0,0,0);stroke-width:1;stroke-linecap:round"></path><path d="M312.0790445388411,-167.4675799850573L312.0790445388411,10.928749408497643L326.1864021281807,-162.79223426382813zM348.126627896781,-165.7984373284093L334.0192703074414,-170.47378304963848L312.0790445388411,-167.4675799850573z" style="fill:rgb(238,238,238); fill-opacity: 0.4"></path><path d="M312.0790445388411,-167.4675799850573L326.1864021281807,-162.7922342638281" style="fill:none;stroke:rgb(0,0,0);stroke-width:1;stroke-linecap:round"></path><path d="M291.8746396700652,-81.03420451026908L290.0262594830695,-71.36999058513746L294.8653813308741,-72.6066828468303zM291.8746396700652,-81.03420451026908L297.85612299168287,-79.05186995348L315.9674178811183,-75.49803900766963zM290.0262594830695,-71.36999058513746L294.8653813308741,-63.41484341538961L294.8653813308741,-72.6066828468303zM299.7045031786786,-68.16250576987535L294.8653813308741,-63.41484341538961L315.9674178811183,-75.49803900766963z" style="fill:rgb(0,0,0)"></path><path d="M326.1864021281807,-162.79223426382813L326.1864021281807,15.604095129726826L348.126627896781,-165.7984373284093z" style="fill:rgb(238,238,238); fill-opacity: 0.4"></path><path d="M226.83270917979613,-196.18037668843652L226.8327091797961,63.00208918955413M226.8327091797961,63.00208918955413L240.94006676913568,67.67743491078333" style="fill:none;stroke:rgb(0,0,0);stroke-width:1;stroke-linecap:round"></path><path d="M297.85612299168287,-79.05186995348L299.7045031786786,-68.16250576987535L315.9674178811183,-75.49803900766963z" style="fill:rgb(0,0,0)"></path><path d="M258.99191919545876,-67.69137737340341L294.8653813308741,-72.6066828468303" style="fill:none;stroke:rgb(0,0,0);stroke-width:1;stroke-linecap:round"></path><path d="M297.85612299168287,-79.05186995348L291.8746396700652,-81.03420451026908L294.8653813308741,-72.6066828468303z" style="fill:rgb(0,0,0)"></path><path d="M326.1864021281807,-162.7922342638281L348.126627896781,-165.7984373284093" style="fill:none;stroke:rgb(0,0,0);stroke-width:1;stroke-linecap:round"></path><path d="M294.8653813308741,-63.41484341538961L299.7045031786786,-68.16250576987535L294.8653813308741,-72.6066828468303z" style="fill:rgb(0,0,0)"></path><path d="M240.94006676913568,67.67743491078333L226.8327091797961,63.00208918955413L248.7729349483963,59.995886124972955zM326.1864021281807,-162.79223426382813L348.126627896781,-165.7984373284093L312.0790445388411,-167.4675799850573z" style="fill:rgb(238,238,238); fill-opacity: 0.4"></path><path d="M299.7045031786786,-68.16250576987535L297.85612299168287,-79.05186995348L294.8653813308741,-72.6066828468303z" style="fill:rgb(0,0,0)"></path><path d="M262.8802925377359,64.67123184620216L240.94006676913568,67.67743491078333L248.7729349483963,59.995886124972955z" style="fill:rgb(238,238,238); fill-opacity: 0.4"></path><path d="M240.94006676913568,67.67743491078333L262.8802925377359,64.67123184620215M262.88029253773595,-194.51123403178855L262.8802925377359,64.67123184620215" style="fill:none;stroke:rgb(0,0,0);stroke-width:1;stroke-linecap:round"></path><path d="M262.8802925377359,64.67123184620216L248.7729349483963,59.995886124972955L248.7729349483963,-199.1865797530177zM248.7729349483963,59.995886124972955L226.8327091797961,63.00208918955413L226.8327091797961,-196.18037668843652z" style="fill:rgb(238,238,238); fill-opacity: 0.4"></path><path d="M240.94006676913568,-191.50503096720735L240.94006676913568,67.67743491078333" style="fill:none;stroke:rgb(0,0,0);stroke-width:1;stroke-linecap:round"></path><path d="M248.7729349483963,-199.1865797530177L248.7729349483963,59.995886124972955L226.8327091797961,-196.18037668843652zM240.94006676913568,67.67743491078333L262.8802925377359,64.67123184620216L262.8802925377359,-194.5112340317885zM226.8327091797961,63.00208918955413L240.94006676913568,67.67743491078333L240.94006676913568,-191.50503096720735zM262.8802925377359,-194.5112340317885L262.8802925377359,64.67123184620216L248.7729349483963,-199.1865797530177z" style="fill:rgb(238,238,238); fill-opacity: 0.4"></path><path d="M248.77293494839637,-199.1865797530177L226.83270917979613,-196.18037668843652M248.77293494839637,-199.1865797530177L262.88029253773595,-194.51123403178855" style="fill:none;stroke:rgb(0,0,0);stroke-width:1;stroke-linecap:round"></path><path d="M226.8327091797961,-196.18037668843652L226.8327091797961,63.00208918955413L240.94006676913568,-191.50503096720735z" style="fill:rgb(238,238,238); fill-opacity: 0.4"></path><path d="M139.80798361431275,-96.40996349375055L139.80798361431275,-24.86399176235134M139.80798361431275,-24.86399176235134L8.166635040052356,-6.826774202087937M139.80798361431275,-24.86399176235134L179.41234170951694,-11.738637493146237" style="fill:none;stroke:rgb(0,0,0);stroke-width:1;stroke-linecap:round"></path><path d="M206.62830431102017,-69.35393297143044L204.77992412402443,-59.68971904629881L209.619045971829,-60.92641130799165zM206.62830431102017,-69.35393297143044L212.6097876326378,-67.37159841464135L230.7210825220733,-63.817767468831zM204.77992412402443,-59.68971904629881L209.619045971829,-51.73457187655096L209.619045971829,-60.92641130799165zM214.45816781963353,-56.48223423103671L209.619045971829,-51.73457187655096L230.7210825220733,-63.817767468831zM212.6097876326378,-67.37159841464135L214.45816781963353,-56.48223423103671L230.7210825220733,-63.817767468831z" style="fill:rgb(0,0,0)"></path><path d="M173.74558383641374,-56.011105834564766L209.61904597182902,-60.92641130799165" style="fill:none;stroke:rgb(0,0,0);stroke-width:1;stroke-linecap:round"></path><path d="M262.8802925377359,-194.5112340317885L248.7729349483963,-199.1865797530177L226.8327091797961,-196.18037668843652zM240.94006676913568,-191.50503096720735L240.94006676913568,67.67743491078333L262.8802925377359,-194.5112340317885z" style="fill:rgb(238,238,238); fill-opacity: 0.4"></path><path d="M212.6097876326378,-67.37159841464135L206.62830431102017,-69.35393297143044L209.619045971829,-60.92641130799165zM209.619045971829,-51.73457187655096L214.45816781963353,-56.48223423103671L209.619045971829,-60.92641130799165z" style="fill:rgb(0,0,0)"></path><path d="M226.83270917979613,-196.18037668843652L240.94006676913568,-191.50503096720735" style="fill:none;stroke:rgb(0,0,0);stroke-width:1;stroke-linecap:round"></path><path d="M214.45816781963353,-56.48223423103671L212.6097876326378,-67.37159841464135L209.619045971829,-60.92641130799165z" style="fill:rgb(0,0,0)"></path><path d="M139.80798361431275,-96.40996349375055L8.166635040052356,-78.37274593348715M139.80798361431275,-96.40996349375055L179.41234170951694,-83.28460922454543M240.94006676913568,-191.50503096720735L262.88029253773595,-194.51123403178855" style="fill:none;stroke:rgb(0,0,0);stroke-width:1;stroke-linecap:round"></path><path d="M240.94006676913568,-191.50503096720735L262.8802925377359,-194.5112340317885L226.8327091797961,-196.18037668843652zM179.4123417095169,-11.738637493146237L139.80798361431272,-24.863991762351343L139.80798361431272,-96.40996349375055zM139.80798361431272,-96.40996349375055L139.80798361431272,-24.863991762351343L8.166635040052345,-78.37274593348715zM179.4123417095169,-83.28460922454543L179.4123417095169,-11.738637493146237L139.80798361431272,-96.40996349375055z" style="fill:rgb(238,238,238); fill-opacity: 0.4"></path><path d="M47.770993135256546,6.298580067117168L179.41234170951694,-11.738637493146237M179.41234170951694,-83.28460922454543L179.41234170951694,-11.738637493146237" style="fill:none;stroke:rgb(0,0,0);stroke-width:1;stroke-linecap:round"></path><path d="M139.80798361431272,-24.863991762351343L8.166635040052345,-6.82677420208794L8.166635040052345,-78.37274593348715zM179.4123417095169,-83.28460922454543L139.80798361431272,-96.40996349375055L8.166635040052345,-78.37274593348715zM179.4123417095169,-11.738637493146237L47.77099313525653,6.298580067117164L139.80798361431272,-24.863991762351343zM47.77099313525653,6.298580067117164L8.166635040052345,-6.82677420208794L139.80798361431272,-24.863991762351343z" style="fill:rgb(238,238,238); fill-opacity: 0.4"></path><path d="M47.770993135256546,-65.24739166428205L179.41234170951694,-83.28460922454543M8.166635040052356,-78.37274593348715L8.166635040052356,-6.826774202087937M8.166635040052356,-6.826774202087937L47.770993135256546,6.298580067117168" style="fill:none;stroke:rgb(0,0,0);stroke-width:1;stroke-linecap:round"></path><path d="M47.77099313525653,6.298580067117164L179.4123417095169,-11.738637493146237L179.4123417095169,-83.28460922454543z" style="fill:rgb(238,238,238); fill-opacity: 0.4"></path><path d="M8.166635040052356,-78.37274593348715L47.770993135256546,-65.24739166428205M-62.19315555358918,-84.77894743218667L-62.19315555358918,12.252218219901497M-62.19315555358918,12.252218219901497L-171.89428741526098,27.28323395641918M-62.19315555358918,12.252218219901497L-8.48143792806881,30.05291885359847" style="fill:none;stroke:rgb(0,0,0);stroke-width:1;stroke-linecap:round"></path><path d="M47.77099313525653,-65.24739166428205L179.4123417095169,-83.28460922454543L8.166635040052345,-78.37274593348715zM8.166635040052345,-78.37274593348715L8.166635040052345,-6.82677420208794L47.77099313525653,-65.24739166428205zM47.77099313525653,-65.24739166428205L47.77099313525653,6.298580067117164L179.4123417095169,-83.28460922454543zM8.166635040052345,-6.82677420208794L47.77099313525653,6.298580067117164L47.77099313525653,-65.24739166428205z" style="fill:rgb(238,238,238); fill-opacity: 0.4"></path><path d="M-62.19315555358918,-84.77894743218667L-171.89428741526098,-69.74793169566898M-62.19315555358918,-84.77894743218667L-8.48143792806881,-66.97824679848969M-26.60033762011951,-48.676287217460704L36.66206813823723,-46.93984602378188M-26.60033762011951,-37.64607989973188L36.66206813823723,-46.93984602378188M-20.494553186640953,-35.62255047935457L36.66206813823723,-46.93984602378188M-20.494553186640953,-46.652757797083396L36.66206813823723,-46.93984602378188M47.770993135256546,-65.24739166428205L47.770993135256546,6.298580067117168" style="fill:none;stroke:rgb(0,0,0);stroke-width:1;stroke-linecap:round"></path><path d="M-8.48143792806881,30.052918853598474L-62.19315555358918,12.252218219901497L-62.19315555358918,-84.77894743218667zM-62.19315555358918,-84.77894743218667L-62.19315555358918,12.252218219901497L-171.89428741526098,-69.747931695669zM-62.19315555358918,12.252218219901497L-171.89428741526098,27.283233956419174L-171.89428741526098,-69.747931695669z" style="fill:rgb(238,238,238); fill-opacity: 0.4"></path><path d="M-26.600339133094312,-37.646080091249154L-26.600339133094312,-48.67628740897798L36.6620637238086,-46.93984513007644zM-20.494554699615755,-35.622550670871846L-26.600339133094312,-37.646080091249154L36.6620637238086,-46.93984513007644zM-26.600339133094312,-48.67628740897798L-20.494554699615755,-46.65275798860068L36.6620637238086,-46.93984513007644zM-20.494554699615755,-46.65275798860068L-20.494554699615755,-35.622550670871846L36.6620637238086,-46.93984513007644z" style="fill:rgb(255,187,187); fill-opacity: 0.4"></path><path d="M-26.60033747303872,-48.67628763643526L-26.60033747303872,-37.64608031870644M-26.60033747303872,-37.64608031870644L-136.30146933471048,-22.61506458218876M-26.60033747303872,-37.64608031870644L-20.494553039560174,-35.62255089832913M-26.60033762011951,-48.676287217460704L-26.60033762011951,-37.64607989973188M-26.60033762011951,-37.64607989973188L-20.494553186640953,-35.62255047935457" style="fill:none;stroke:rgb(0,0,0);stroke-width:1;stroke-linecap:round"></path><path d="M-8.48143792806881,-66.97824679848969L-8.48143792806881,30.052918853598474L-62.19315555358918,-84.77894743218667z" style="fill:rgb(238,238,238); fill-opacity: 0.4"></path><path d="M-171.89428741526098,-69.74793169566898L-171.89428741526098,27.28323395641918M-171.89428741526098,27.28323395641918L-118.18256978974057,45.08393459011616M-26.60033747303872,-48.67628763643526L-136.30146933471048,-33.64527189991759M-26.60033747303872,-48.67628763643526L-20.494553039560174,-46.65275821605797M-26.60033762011951,-48.676287217460704L-20.494553186640953,-46.652757797083396" style="fill:none;stroke:rgb(0,0,0);stroke-width:1;stroke-linecap:round"></path><path d="M-8.48143792806881,-66.97824679848969L-62.19315555358918,-84.77894743218667L-171.89428741526098,-69.747931695669z" style="fill:rgb(238,238,238); fill-opacity: 0.4"></path><path d="M-20.494553039560163,-35.62255089832913L-26.60033747303872,-37.64608031870644L-26.60033747303872,-48.67628763643526z" style="fill:rgb(153,221,255); fill-opacity: 0.4"></path><path d="M-26.600339133094312,-48.67628740897798L-26.600339133094312,-37.646080091249154L-20.494554699615755,-35.622550670871846z" style="fill:rgb(255,187,187); fill-opacity: 0.4"></path><path d="M-118.18256978974057,45.08393459011615L-171.89428741526098,27.283233956419174L-62.19315555358918,12.252218219901497z" style="fill:rgb(238,238,238); fill-opacity: 0.4"></path><path d="M-20.494553039560163,-46.65275821605797L-20.494553039560163,-35.62255089832913L-26.60033747303872,-48.67628763643526z" style="fill:rgb(153,221,255); fill-opacity: 0.4"></path><path d="M-26.600339133094312,-48.67628740897798L-20.494554699615755,-35.622550670871846L-20.494554699615755,-46.65275798860068z" style="fill:rgb(255,187,187); fill-opacity: 0.4"></path><path d="M-130.19568490123194,-20.591535161811453L-20.494553039560174,-35.62255089832913M-20.494553039560174,-46.65275821605797L-20.494553039560174,-35.62255089832913M-20.494553186640953,-35.62255047935457L-20.494553186640953,-46.652757797083396" style="fill:none;stroke:rgb(0,0,0);stroke-width:1;stroke-linecap:round"></path><path d="M-8.48143792806881,30.052918853598474L-118.18256978974057,45.08393459011615L-62.19315555358918,12.252218219901497z" style="fill:rgb(238,238,238); fill-opacity: 0.4"></path><path d="M-130.19568490123194,-31.62174247954028L-20.494553039560174,-46.65275821605797M-118.18256978974057,45.08393459011616L-8.48143792806881,30.05291885359847M-8.48143792806881,-66.97824679848969L-8.48143792806881,30.05291885359847M-171.89428741526098,-69.74793169566898L-118.18256978974057,-51.94723106197201" style="fill:none;stroke:rgb(0,0,0);stroke-width:1;stroke-linecap:round"></path><path d="M-26.60033747303872,-48.67628763643526L-26.60033747303872,-37.64608031870644L-136.30146933471048,-33.64527189991759z" style="fill:rgb(153,221,255); fill-opacity: 0.4"></path><path d="M-240.6714204888514,-76.37098114559048L-240.6714204888514,46.1453714143697M-240.6714204888514,46.1453714143697L-243.83672597138803,46.57907483849561M-240.6714204888514,46.1453714143697L-172.85234721496806,68.62141712603318" style="fill:none;stroke:rgb(0,0,0);stroke-width:1;stroke-linecap:round"></path><path d="M-20.494553039560163,-46.65275821605797L-26.60033747303872,-48.67628763643526L-136.30146933471048,-33.64527189991759z" style="fill:rgb(153,221,255); fill-opacity: 0.4"></path><path d="M-243.83672597138803,-75.93727772146457L-243.83672597138803,46.57907483849561M-243.83672597138803,46.57907483849561L-176.0176526975047,69.05512055015909" style="fill:none;stroke:rgb(0,0,0);stroke-width:1;stroke-linecap:round"></path><path d="M-20.494553039560163,-35.62255089832913L-130.19568490123194,-20.59153516181145L-26.60033747303872,-37.64608031870644zM-130.19568490123194,-20.59153516181145L-20.494553039560163,-35.62255089832913L-20.494553039560163,-46.65275821605797z" style="fill:rgb(153,221,255); fill-opacity: 0.4"></path><path d="M-118.18256978974057,-51.94723106197201L-8.48143792806881,-66.97824679848969" style="fill:none;stroke:rgb(0,0,0);stroke-width:1;stroke-linecap:round"></path><path d="M-240.6714204888514,46.1453714143697L-243.83672597138803,46.57907483849561L-243.83672597138803,-75.93727772146457zM-171.89428741526098,-69.747931695669L-171.89428741526098,27.283233956419174L-118.18256978974057,-51.94723106197201zM-118.18256978974057,45.08393459011615L-8.48143792806881,30.052918853598474L-8.48143792806881,-66.97824679848969zM-240.6714204888514,-76.37098114559048L-240.6714204888514,46.1453714143697L-243.83672597138803,-75.93727772146457z" style="fill:rgb(238,238,238); fill-opacity: 0.4"></path><path d="M-26.60033747303872,-37.64608031870644L-136.30146933471048,-22.615064582188758L-136.30146933471048,-33.64527189991759zM-130.19568490123194,-20.59153516181145L-136.30146933471048,-22.615064582188758L-26.60033747303872,-37.64608031870644z" style="fill:rgb(153,221,255); fill-opacity: 0.4"></path><path d="M-208.98121307155412,21.831545828932835L-143.12481914840973,13.024478527896637M-208.98121307155412,32.8617548998659L-143.12481914840973,13.024478527896637M-202.87542857742005,34.88528434034516L-143.12481914840973,13.024478527896637M-202.87542857742005,23.8550752694121L-143.12481914840973,13.024478527896637M-240.6714204888514,-76.37098114559048L-243.83672597138803,-75.93727772146457M-240.6714204888514,-76.37098114559048L-172.85234721496806,-53.894935433926996" style="fill:none;stroke:rgb(0,0,0);stroke-width:1;stroke-linecap:round"></path><path d="M-118.18256978974057,-51.94723106197201L-8.48143792806881,-66.97824679848969L-171.89428741526098,-69.747931695669z" style="fill:rgb(238,238,238); fill-opacity: 0.4"></path><path d="M-130.19568490123194,-31.62174247954028L-20.494553039560163,-46.65275821605797L-136.30146933471048,-33.64527189991759z" style="fill:rgb(153,221,255); fill-opacity: 0.4"></path><path d="M-243.83672597138803,-75.93727772146457L-176.0176526975047,-53.46123200980109" style="fill:none;stroke:rgb(0,0,0);stroke-width:1;stroke-linecap:round"></path><path d="M-130.19568490123194,-31.62174247954028L-130.19568490123194,-20.59153516181145L-20.494553039560163,-46.65275821605797z" style="fill:rgb(153,221,255); fill-opacity: 0.4"></path><path d="M-176.01765269750467,69.05512055015909L-243.83672597138803,46.57907483849561L-240.6714204888514,46.1453714143697zM-171.89428741526098,27.283233956419174L-118.18256978974057,45.08393459011615L-118.18256978974057,-51.94723106197201z" style="fill:rgb(238,238,238); fill-opacity: 0.4"></path><path d="M-136.30146933471048,-33.64527189991759L-136.30146933471048,-22.61506458218876M-136.30146933471048,-22.61506458218876L-130.19568490123194,-20.591535161811453" style="fill:none;stroke:rgb(0,0,0);stroke-width:1;stroke-linecap:round"></path><path d="M-172.85234721496803,68.62141712603318L-240.6714204888514,46.1453714143697L-240.6714204888514,-76.37098114559048z" style="fill:rgb(238,238,238); fill-opacity: 0.4"></path><path d="M-136.30146933471048,-33.64527189991759L-130.19568490123194,-31.62174247954028" style="fill:none;stroke:rgb(0,0,0);stroke-width:1;stroke-linecap:round"></path><path d="M-208.9812138686032,32.86175370635912L-208.98121386860316,21.83154638863029L-143.12481998004847,13.024479139394213z" style="fill:rgb(255,187,187); fill-opacity: 0.4"></path><path d="M-136.30146933471048,-33.64527189991759L-136.30146933471048,-22.615064582188758L-130.19568490123194,-31.62174247954028z" style="fill:rgb(153,221,255); fill-opacity: 0.4"></path><path d="M-118.18256978974057,-51.94723106197201L-118.18256978974057,45.08393459011615L-8.48143792806881,-66.97824679848969z" style="fill:rgb(238,238,238); fill-opacity: 0.4"></path><path d="M-202.8754294351246,34.885283126736425L-208.9812138686032,32.86175370635912L-143.12481998004847,13.024479139394213z" style="fill:rgb(255,187,187); fill-opacity: 0.4"></path><path d="M-136.30146933471048,-22.615064582188758L-130.19568490123194,-20.59153516181145L-130.19568490123194,-31.62174247954028z" style="fill:rgb(153,221,255); fill-opacity: 0.4"></path><path d="M-208.98121386860316,21.83154638863029L-202.8754294351246,23.855075809007598L-143.12481998004847,13.024479139394213z" style="fill:rgb(255,187,187); fill-opacity: 0.4"></path><path d="M-130.19568490123194,-31.62174247954028L-130.19568490123194,-20.591535161811453" style="fill:none;stroke:rgb(0,0,0);stroke-width:1;stroke-linecap:round"></path><path d="M-202.8754294351246,23.855075809007598L-202.8754294351246,34.885283126736425L-143.12481998004847,13.024479139394213z" style="fill:rgb(255,187,187); fill-opacity: 0.4"></path><path d="M-243.83672597138803,-75.93727772146457L-243.83672597138803,46.57907483849561L-176.01765269750467,-53.46123200980109z" style="fill:rgb(238,238,238); fill-opacity: 0.4"></path><path d="M-207.39856112733486,21.614694676567332L-207.39856112733486,32.64490199429616M-207.39856112733486,32.64490199429616L-210.5638666098715,33.078605418422065M-207.39856112733486,32.64490199429616L-201.2927766938563,34.66843141467347M-118.18256978974057,-51.94723106197201L-118.18256978974057,45.08393459011616M-208.98121307155412,21.831545828932835L-208.98121307155412,32.8617548998659M-208.98121307155412,32.8617548998659L-202.87542857742005,34.88528434034516M-210.5638666098715,22.048398100693234L-210.5638666098715,33.078605418422065M-210.5638666098715,33.078605418422065L-204.45808217639296,35.10213483879937" style="fill:none;stroke:rgb(0,0,0);stroke-width:1;stroke-linecap:round"></path><path d="M-207.39856112733486,32.64490199429618L-210.5638666098715,33.078605418422065L-210.5638666098715,22.04839810069324zM-207.39856112733486,21.614694676567343L-207.39856112733486,32.64490199429618L-210.5638666098715,22.04839810069324z" style="fill:rgb(153,221,255); fill-opacity: 0.4"></path><path d="M-207.39856112733486,21.614694676567332L-210.5638666098715,22.048398100693234M-207.39856112733486,21.614694676567332L-201.2927766938563,23.638224096944644M-208.98121307155412,21.831545828932835L-202.87542857742005,23.8550752694121" style="fill:none;stroke:rgb(0,0,0);stroke-width:1;stroke-linecap:round"></path><path d="M-201.2927766938563,34.66843141467347L-207.39856112733486,32.64490199429618L-207.39856112733486,21.614694676567343z" style="fill:rgb(153,221,255); fill-opacity: 0.4"></path><path d="M-210.5638666098715,22.048398100693234L-204.45808217639296,24.071927521070542" style="fill:none;stroke:rgb(0,0,0);stroke-width:1;stroke-linecap:round"></path><path d="M-204.45808217639296,35.10213483879938L-210.5638666098715,33.078605418422065L-207.39856112733486,32.64490199429618z" style="fill:rgb(153,221,255); fill-opacity: 0.4"></path><path d="M-208.98121386860316,21.83154638863029L-208.9812138686032,32.86175370635912L-202.8754294351246,34.885283126736425z" style="fill:rgb(255,187,187); fill-opacity: 0.4"></path><path d="M-172.85234721496803,-53.894935433926996L-240.6714204888514,-76.37098114559048L-243.83672597138803,-75.93727772146457z" style="fill:rgb(238,238,238); fill-opacity: 0.4"></path><path d="M-201.2927766938563,23.63822409694465L-207.39856112733486,21.614694676567343L-210.5638666098715,22.04839810069324zM-210.5638666098715,22.04839810069324L-210.5638666098715,33.078605418422065L-204.45808217639296,24.07192752107055zM-201.2927766938563,34.66843141467347L-204.45808217639296,35.10213483879938L-207.39856112733486,32.64490199429618zM-201.2927766938563,23.63822409694465L-201.2927766938563,34.66843141467347L-207.39856112733486,21.614694676567343z" style="fill:rgb(153,221,255); fill-opacity: 0.4"></path><path d="M-208.98121386860316,21.83154638863029L-202.8754294351246,34.885283126736425L-202.8754294351246,23.855075809007598z" style="fill:rgb(255,187,187); fill-opacity: 0.4"></path><path d="M-210.5638666098715,33.078605418422065L-204.45808217639296,35.10213483879938L-204.45808217639296,24.07192752107055z" style="fill:rgb(153,221,255); fill-opacity: 0.4"></path><path d="M-204.45808217639296,35.10213483879937L-201.2927766938563,34.66843141467347M-201.2927766938563,23.638224096944644L-201.2927766938563,34.66843141467347" style="fill:none;stroke:rgb(0,0,0);stroke-width:1;stroke-linecap:round"></path><path d="M-204.45808217639296,24.07192752107055L-201.2927766938563,23.63822409694465L-210.5638666098715,22.04839810069324z" style="fill:rgb(153,221,255); fill-opacity: 0.4"></path><path d="M-202.87542857742005,34.88528434034516L-202.87542857742005,23.8550752694121" style="fill:none;stroke:rgb(0,0,0);stroke-width:1;stroke-linecap:round"></path><path d="M-204.45808217639296,35.10213483879938L-201.2927766938563,34.66843141467347L-201.2927766938563,23.63822409694465z" style="fill:rgb(153,221,255); fill-opacity: 0.4"></path><path d="M-204.45808217639296,24.071927521070542L-204.45808217639296,35.10213483879937M-204.45808217639296,24.071927521070542L-201.2927766938563,23.638224096944644" style="fill:none;stroke:rgb(0,0,0);stroke-width:1;stroke-linecap:round"></path><path d="M-204.45808217639296,24.07192752107055L-204.45808217639296,35.10213483879938L-201.2927766938563,23.63822409694465z" style="fill:rgb(153,221,255); fill-opacity: 0.4"></path><path d="M-172.85234721496803,68.62141712603318L-176.01765269750467,69.05512055015909L-240.6714204888514,46.1453714143697zM-243.83672597138803,46.57907483849561L-176.01765269750467,69.05512055015909L-176.01765269750467,-53.46123200980109zM-172.85234721496803,-53.894935433926996L-172.85234721496803,68.62141712603318L-240.6714204888514,-76.37098114559048zM-176.01765269750467,-53.46123200980109L-172.85234721496803,-53.894935433926996L-243.83672597138803,-75.93727772146457z" style="fill:rgb(238,238,238); fill-opacity: 0.4"></path><path d="M-176.0176526975047,69.05512055015909L-172.85234721496806,68.62141712603318M-172.85234721496806,-53.894935433926996L-172.85234721496806,68.62141712603318M-176.0176526975047,-53.46123200980109L-176.0176526975047,69.05512055015909" style="fill:none;stroke:rgb(0,0,0);stroke-width:1;stroke-linecap:round"></path><path d="M-176.01765269750467,69.05512055015909L-172.85234721496803,68.62141712603318L-172.85234721496803,-53.894935433926996zM-176.01765269750467,-53.46123200980109L-176.01765269750467,69.05512055015909L-172.85234721496803,-53.894935433926996z" style="fill:rgb(238,238,238); fill-opacity: 0.4"></path><path d="M-176.0176526975047,-53.46123200980109L-172.85234721496806,-53.894935433926996" style="fill:none;stroke:rgb(0,0,0);stroke-width:1;stroke-linecap:round"></path></svg>